<svg id="Layer_1" data-name="Layer 1" xmlns="http://www.w3.org/2000/svg" viewBox="0 0 400 300" width="406" height="306" class="illustration styles_illustrationTablet__1DWOa">
  <rect x="103.24" y="71.8" width="192.92" height="140.09" transform="translate(399.39 283.68) rotate(-180)" fill="#e6e6e6"></rect>
  <path d="M291.07,109.31s-4-1.13-5.39,4.93-.74,7.37,2.21,8.89,1.44,11.36-3.93,11.15-9.74-4.55-12.37,0-5.29,38-16.28,30.74-13.45-34.91-13.45-34.91l-19.64-.29v21.69l15.28-.31s2,26.64,23.45,32.59a8.16,8.16,0,0,1,5.67,10.37l-5.77,17.71h33.21l0-23.36S295.64,116,291.07,109.31Z" opacity="0.05"></path>
  <ellipse cx="292.6" cy="238.59" rx="57.66" ry="8.59" fill="#e6e6e6" opacity="0.45"></ellipse>
  <ellipse cx="90.58" cy="238.59" rx="50.35" ry="8.59" fill="#e6e6e6" opacity="0.45"></ellipse>
  <path d="M334.76,230s5.88-1.58,7.18-7c0,0-9.09-1.88-9.39,7.51Z" fill="#8A8A8C" opacity="0.58"></path>
  <path d="M334,229.43s4.13-6.46.55-12.54a10.44,10.44,0,0,0-3.9,12.54Z" fill="#8A8A8C" opacity="0.73"></path>
  <path d="M333,229.43s-2.14-6.85-8.68-8.18c0,0-1.25,4.44,4.2,8.18Z" fill="#8A8A8C"></path>
  <polygon points="337.25 229.3 336.02 237.43 328.53 237.43 327.46 229.3 337.25 229.3" fill="#24285b"></polygon>
  <path d="M290.1,130.12s-12.49-1.67-15,8.77-2.86,24.89-12.9,27.78-15.58-17.17-15.58-17.17-2.33-5.63-4.84-6.4-4.3,4.79,0,8.19c0,0,3.63,25.62,22.86,24.72S290.1,148.7,290.1,130.12Z" fill="#f4a28c"></path>
  <path d="M290.1,130.12s-12.49-1.67-15,8.77-2.86,24.89-12.9,27.78-15.58-17.17-15.58-17.17-2.33-5.63-4.84-6.4-4.3,4.79,0,8.19c0,0,3.63,25.62,22.86,24.72S290.1,148.7,290.1,130.12Z" opacity="0.08"></path>
  <path d="M290.1,130.12s-13.41-2.65-15.29,8.19a81.21,81.21,0,0,1-5.19,18.09l10.24,3.32Z" fill="#8A8A8C"></path>
  <path d="M290.1,130.12s-13.41-2.65-15.29,8.19a81.21,81.21,0,0,1-5.19,18.09l10.24,3.32Z" fill="#fff" opacity="0.46"></path>
  <path d="M290.74,112.51a25.18,25.18,0,0,0-2,6.38,2,2,0,0,0,1.82,2.22,4.46,4.46,0,0,0,4.44-1.94l2.35-2.88a3.61,3.61,0,0,0-.16-4.18C295.61,109.79,291.67,110.23,290.74,112.51Z" fill="#f4a28c"></path>
  <polygon points="296.44 116.95 297.39 130.12 290.1 130.12 292.28 120.78 296.44 116.95" fill="#f4a28c"></polygon>
  <path d="M289.77,114.86l-1.59,1.06a.65.65,0,0,0,0,1.09l1.34.81Z" fill="#f4a28c"></path>
  <path d="M292.22,121a4.91,4.91,0,0,0,2.37-1.13s.48,2.85-3,3.81Z" fill="#ce8172" opacity="0.31"></path>
  <path d="M294.06,116.79s.57-1.45,1.62-.93.25,2.61-1.31,2.25Z" fill="#f4a28c"></path>
  <polygon points="276.92 205.1 270.75 233.14 274.34 233.14 286.34 205.1 276.92 205.1" fill="#f4a28c"></polygon>
  <polygon points="296.99 201.7 303.57 233.14 307.18 233.14 306.63 201.47 296.99 201.7" fill="#f4a28c"></polygon>
  <path d="M270.75,233.14s-2,2.52-4.54,2.4-2.92,3.47,1.18,3.1a22.06,22.06,0,0,0,3.78-.65,6.74,6.74,0,0,1,3.45.12,1.09,1.09,0,0,0,1.17-.46c1.16-1.37-1.69-4.51-1.69-4.51Z" fill="#8A8A8C"></path>
  <path d="M306.91,233.14s2,2.52,4.54,2.4,2.92,3.47-1.17,3.1a21.88,21.88,0,0,1-3.78-.65,6.78,6.78,0,0,0-3.46.12,1.07,1.07,0,0,1-1.16-.46c-1.17-1.37,1.69-4.51,1.69-4.51Z" fill="#8A8A8C"></path>
  <path d="M290.1,130.12h7.29s.5,0,1.36,0c15.91.51,25.15,18.18,16.7,31.67-4.7,7.5-10.31,17.61-10.68,23.65L276.42,184s2.14-18.39-3.11-28.9C273.31,155.11,263.65,138.56,290.1,130.12Z" fill="#8A8A8C"></path>
  <path d="M302.76,139.75s-3.52,7.29-4.36,20.4-20.73-2.38-20.73-2.38l-.92,21.66L305.7,181l2.41-8.78S315.7,158.59,302.76,139.75Z" opacity="0.08"></path>
  <rect x="274.44" y="146.65" width="19.03" height="29.4" transform="translate(584.77 288.54) rotate(173.32)" fill="#ffd200"></rect>
  <rect x="277.91" y="144.88" width="8.86" height="4.31" transform="translate(579.87 260.21) rotate(173.32)" fill="#24285b"></rect>
  <polygon points="276.75 179.43 305.7 180.96 313.44 210.28 271.59 208.79 276.75 179.43" fill="#24285b"></polygon>
  <polygon points="273.96 157.81 294.06 165.83 295.12 174.84 276.22 177.06 273.96 157.81" opacity="0.08"></polygon>
  <path d="M303,141.15A6.17,6.17,0,0,1,313.93,137a26.44,26.44,0,0,1,6.12,17.61c-.24,17.16-2.55,35.74-39.57,15.44l2-5.44s16.43,7.9,23.29,5.34C310.81,168.05,303.52,152.94,303,141.15Z" fill="#f4a28c"></path>
  <path d="M282.47,164.6s-6.17-2.93-8.8,0,1.55,5.56,6.81,5.44Z" fill="#f4a28c"></path>
  <path d="M290.1,110.57l-1.27,3.17,5.23,2s.3,3.52-1.55,4.16a3.21,3.21,0,0,0,2.25-1.09,1.26,1.26,0,0,1,1.75-.11l.06.06a11.24,11.24,0,0,0,3.05-5.39c.6-3.1-2.87-3.58-2.87-3.58S292.16,106.57,290.1,110.57Z" fill="#24285b"></path>
  <path d="M296.75,109.8s.24-3,5.62-2.51,0,7.73,4.42,14.5c0,0-8.13-1.72-8.36-9Z" fill="#24285b"></path>
  <path d="M296.42,109.59a2.37,2.37,0,0,1,2.6.22c1.52,1,2.19,4.47-.21,5.68C298.81,115.49,300.8,110.73,296.42,109.59Z" fill="#ffd200"></path>
  <path d="M305.35,159.72h15.77s1.73-23-11.32-26S305.35,159.72,305.35,159.72Z" fill="#8A8A8C"></path>
  <path d="M305.35,159.72h15.77s1.73-23-11.32-26S305.35,159.72,305.35,159.72Z" fill="#fff" opacity="0.46"></path>
  <rect x="230.03" y="128.1" width="23.65" height="19.73" transform="translate(483.71 275.94) rotate(-180)" fill="#24285b"></rect>
  <polygon points="251.22 144.78 245.58 134.72 241.63 142.17 236.85 135.85 232.06 144.78 251.22 144.78" fill="#fff" opacity="0.62"></polygon>
  <circle cx="240.76" cy="133.59" r="1.88" fill="#fff"></circle>
  <path d="M117.51,139.45l-12.54.34-4.13,72.09h18c1-3.43,3.6-21.27,13.38-31.6,9.62-10.17,48.9-36.53,34.51-54.33-7-8.67-18.76,24.43-18.76,24.43l-18.52,2.2,1.27-.66Z" opacity="0.05"></path>
  <polygon points="89.87 121.45 91.95 127.68 87.02 130.81 85.25 120.02 89.87 121.45" fill="#f4a28c"></polygon>
  <path d="M83.56,114A3.87,3.87,0,0,1,90,112.93c2.09,2.24,4.62,5.8,1.76,7.73-4.37,3-8.39-2.57-8.39-2.57A7,7,0,0,1,83.56,114Z" fill="#f4a28c"></path>
  <path d="M86.76,117.82s-1.13-.94-1.63.4,1.47,2,2.06,1.3S86.76,117.82,86.76,117.82Z" fill="#f4a28c"></path>
  <path d="M76.86,134S56.6,146.22,53.93,175a10,10,0,0,0,7.57,10.67l23.75,5.73Z" fill="#8A8A8C"></path>
  <path d="M76.86,134S56.6,146.22,53.93,175a10,10,0,0,0,7.57,10.67l23.75,5.73Z" fill="#fff" opacity="0.2"></path>
  <rect x="57.36" y="175.01" width="34.26" height="22.4" transform="translate(-70.96 48.12) rotate(-24.68)" fill="#ffd200"></rect>
  <path d="M87.38,116.21s2.32,6.66-1.73,6.24-1.84-3.28-3.85-6.24-1-5,2.12-7.57c1.41-1.19,2.35-1.75,2.92-2.38a2.18,2.18,0,0,1,3.65.52C91.54,109.34,91.55,112.76,87.38,116.21Z" fill="#24285b"></path>
  <path d="M72.17,140a16.29,16.29,0,0,1,10.22-8.93c8.67-2.6,25.12-8.06,30,0,6.65,11.09-3.59,54.64-3.59,54.64L79.67,188S63.66,159.11,72.17,140Z" fill="#8A8A8C"></path>
  <polygon points="108.78 185.73 104.95 235.78 98.9 235.78 93.49 196.89 80.11 187.99 108.78 185.73" fill="#24285b"></polygon>
  <polygon points="80.11 187.99 71.76 235.78 78.25 235.78 92.26 196.08 80.11 187.99" fill="#24285b"></polygon>
  <path d="M84.91,130.29s-13.62,43.86,25.7,46.76l-1.83,8.68L79.67,188a75.56,75.56,0,0,1-9.82-38.73s.25-11.18,8.12-16.13A17.82,17.82,0,0,1,84.91,130.29Z" opacity="0.08"></path>
  <path d="M72.94,235.78l-4,3a.89.89,0,0,0,.52,1.6h6.75a.89.89,0,0,0,.89-.88v-3.68Z" fill="#8A8A8C"></path>
  <path d="M104.78,235.78l3.79,3a.89.89,0,0,1-.55,1.6h-4.81a2.56,2.56,0,0,1-2.56-2.56v-2Z" fill="#8A8A8C"></path>
  <path d="M164.32,126.58,160,125.31,140.81,142h0a10.61,10.61,0,0,1-10.44,2,23.73,23.73,0,0,1-12.55-10c-6.88-11.16-18.57-7.13-18.57-7.13s-8.81,8.68,8.64,23.57c10.42,8.89,21.09,9.45,28,8.46a23.89,23.89,0,0,1,2.54-.17,6.57,6.57,0,0,0,2.37-.53,26.26,26.26,0,0,0,2.71-1.35h0C150.59,152.76,158.22,144.1,164.32,126.58Z" fill="#8A8A8C"></path>
  <path d="M164.32,126.58,160,125.31,140.81,142h0a10.61,10.61,0,0,1-10.44,2,23.73,23.73,0,0,1-12.55-10c-6.88-11.16-18.57-7.13-18.57-7.13s-8.81,8.68,8.64,23.57c10.42,8.89,21.09,9.45,28,8.46a23.89,23.89,0,0,1,2.54-.17,6.57,6.57,0,0,0,2.37-.53,26.26,26.26,0,0,0,2.71-1.35h0C150.59,152.76,158.22,144.1,164.32,126.58Z" fill="#fff" opacity="0.2"></path>
  <path d="M160,125.31s2.43-7,4.36-7.49,0,3.74,0,3.74,5.3,2.6,0,5Z" fill="#f4a28c"></path>
  <path d="M181.07,143.75l-4.1,5.14a26.92,26.92,0,0,0-5.74,19.39l.79,8,12-10.9Z" fill="#878787" opacity="0.55"></path>
  <path d="M209.86,143.75l4.1,5.14a26.88,26.88,0,0,1,5.74,19.39l-.78,8-12-10.9Z" fill="#878787" opacity="0.55"></path>
  <path d="M190,167.08s3.74,22-2.41,23.85-9-8.08-17.12-2.17,2.29,12.42-12.05,10.61-19.9,5.26-16.52,12.51H247.73s5.31-6.73-.6-11.31a11.21,11.21,0,0,0-9.1-2,3,3,0,0,1-3.5-3c.06-2.17-.31-4.63-2-6.13-2-1.83-6.25.08-9.41,2a18.92,18.92,0,0,1-12,2.7c-3.67-.44-7.43-1.66-8.45-4.68-2.17-6.39-.85-22.81-.85-22.81Z" fill="#fff" opacity="0.55"></path>
  <path d="M195.48,98.11s-30.3,16.63-11.45,67.26h22.91C225.79,114.74,195.48,98.11,195.48,98.11Z" fill="#c1c1c1"></path>
  <polygon points="206.94 165.37 205.92 169.25 185.13 169.25 184.03 164.91 206.94 165.37" fill="#878787"></polygon>
  <circle cx="195.7" cy="127.81" r="7.78" fill="#e6e6e6"></circle>
  <circle cx="117.03" cy="86.09" r="4.87" fill="#ffd200"></circle>
  <circle cx="130.73" cy="86.09" r="4.87" fill="#8A8A8C"></circle>
  <circle cx="143.86" cy="86.09" r="4.87" fill="#24285b"></circle>
  <rect x="216.87" y="57.16" width="65.6" height="45.49" fill="#f4f4f4"></rect>
  <rect x="232.39" y="83.4" width="7.38" height="9.44" fill="#c1c1c1"></rect>
  <rect x="246.18" y="76.14" width="7.38" height="16.7" fill="#c1c1c1"></rect>
  <rect x="259.71" y="68.73" width="7.38" height="24.11" fill="#c1c1c1"></rect>
</svg>
