<svg id="svg" version="1.1" xmlns="http://www.w3.org/2000/svg" xmlns:xlink="http://www.w3.org/1999/xlink" width="400"
     height="400" viewBox="0, 0, 400,400">
  <g id="svgg">
    <path id="path0"
          d="M292.507 85.081 C 290.213 86.519,285.203 89.612,281.375 91.954 C 277.546 94.296,272.656 97.305,270.508 98.641 C 268.359 99.977,259.219 105.599,250.195 111.136 C 241.172 116.672,231.328 122.726,228.320 124.590 C 225.312 126.453,221.533 128.787,219.922 129.777 C 213.958 133.439,213.967 133.763,220.148 137.510 C 222.494 138.932,228.236 142.423,232.907 145.268 C 237.970 148.351,241.599 150.328,241.892 150.162 C 242.630 149.744,256.694 140.828,260.938 138.087 C 269.395 132.626,270.998 131.641,271.431 131.641 C 271.775 131.641,271.883 148.968,271.875 202.832 C 271.869 241.987,271.867 281.011,271.870 289.551 L 271.875 305.078 284.718 305.078 L 297.560 305.078 297.818 251.855 C 298.423 126.456,298.331 82.626,297.461 82.542 C 297.031 82.500,294.802 83.642,292.507 85.081 M86.421 99.467 L 86.523 115.731 94.531 120.507 C 104.992 126.746,133.587 143.749,141.797 148.613 C 145.342 150.713,154.307 156.041,161.719 160.454 C 183.651 173.512,204.812 186.098,218.359 194.142 C 225.342 198.288,232.285 202.430,233.789 203.346 C 239.995 207.125,247.353 211.311,247.972 211.414 C 248.582 211.515,248.641 210.336,248.735 196.059 L 248.837 180.594 239.360 174.924 C 234.147 171.806,221.182 164.006,210.547 157.593 C 172.240 134.491,160.896 127.664,146.289 118.926 C 138.125 114.042,128.369 108.160,124.609 105.856 C 120.850 103.552,117.044 101.248,116.152 100.736 C 113.787 99.378,112.374 98.530,99.066 90.492 C 92.430 86.483,86.847 83.203,86.660 83.203 C 86.470 83.203,86.365 90.412,86.421 99.467 M70.167 121.370 C 69.840 121.697,69.853 272.449,70.181 290.728 L 70.439 305.089 83.100 304.986 L 95.761 304.883 95.717 286.133 C 95.693 275.820,95.509 250.244,95.309 229.297 C 94.828 179.068,94.828 167.969,95.311 167.969 C 95.525 167.969,98.293 169.520,101.463 171.416 C 104.633 173.313,111.182 177.207,116.016 180.070 C 120.850 182.934,127.178 186.716,130.078 188.475 C 135.148 191.551,144.724 197.271,165.293 209.514 C 173.746 214.545,175.041 215.199,175.894 214.875 C 176.429 214.672,178.863 213.372,181.304 211.987 C 183.745 210.601,186.533 209.022,187.500 208.478 C 198.983 202.018,199.414 201.742,199.526 200.772 C 199.652 199.691,201.656 201.013,178.516 186.910 C 171.533 182.655,164.063 178.085,161.914 176.756 C 159.766 175.426,153.438 171.560,147.852 168.165 C 142.266 164.769,133.389 159.355,128.125 156.134 C 110.952 145.623,104.654 141.780,93.750 135.159 C 87.842 131.571,80.715 127.225,77.912 125.502 C 71.818 121.755,70.490 121.046,70.167 121.370 M328.875 124.341 C 326.173 126.100,320.613 129.691,316.521 132.322 L 309.080 137.104 308.812 180.955 C 308.665 205.072,308.599 242.822,308.666 264.844 L 308.789 304.883 321.730 304.986 L 334.671 305.089 334.924 275.689 C 335.475 211.529,335.943 121.809,335.728 121.461 C 335.203 120.612,333.515 121.321,328.875 124.341 M113.379 210.046 C 112.992 210.185,112.891 220.061,112.891 257.650 L 112.891 305.078 124.805 305.078 L 136.719 305.078 136.713 265.723 C 136.709 244.077,136.578 226.169,136.420 225.928 C 136.053 225.365,116.013 211.039,114.258 210.084 C 114.043 209.967,113.647 209.950,113.379 210.046 "
          stroke="none" fill="#f3f2f2" fill-rule="evenodd"></path>
    <path id="path1"
          d="M87.500 0.603 C 43.611 6.032,8.922 39.492,1.058 83.984 L 0.195 88.867 0.195 200.000 L 0.195 311.133 1.058 316.016 C 9.084 361.422,44.814 395.136,89.619 399.577 C 95.599 400.170,304.401 400.170,310.381 399.577 C 355.170 395.137,390.919 361.407,398.942 316.016 L 399.805 311.133 399.805 200.391 C 399.805 76.678,400.034 87.148,397.068 75.326 C 387.048 35.387,352.564 5.179,311.719 0.560 C 304.794 -0.223,93.851 -0.183,87.500 0.603 M298.854 82.861 C 299.178 83.465,299.235 88.648,299.067 101.904 C 298.940 111.921,298.722 154.570,298.583 196.680 C 298.444 238.789,298.281 273.682,298.221 274.219 C 298.161 274.756,298.097 281.919,298.079 290.137 L 298.047 305.078 284.668 305.078 L 271.289 305.078 271.395 218.527 C 271.480 148.646,271.404 132.029,271.004 132.255 C 270.450 132.568,254.747 142.592,247.392 147.328 C 241.775 150.945,241.480 150.983,237.764 148.572 C 236.222 147.571,231.006 144.383,226.172 141.487 C 221.338 138.591,216.899 135.882,216.309 135.467 C 214.123 133.932,215.352 131.877,220.184 128.983 C 224.057 126.663,230.613 122.656,236.914 118.756 C 247.558 112.170,252.828 108.935,261.914 103.411 C 266.855 100.407,271.338 97.647,271.875 97.277 C 272.412 96.907,274.170 95.807,275.781 94.831 C 277.393 93.855,281.787 91.162,285.547 88.845 C 289.307 86.529,293.339 84.048,294.508 83.333 C 296.974 81.823,298.226 81.687,298.854 82.861 M90.979 85.230 C 93.255 86.559,98.018 89.400,101.563 91.543 C 111.613 97.620,146.186 118.439,159.375 126.357 C 174.998 135.737,205.772 154.284,212.695 158.493 C 215.703 160.321,221.416 163.759,225.391 166.132 C 232.137 170.161,243.377 176.932,247.168 179.252 L 248.828 180.268 248.828 196.234 C 248.828 211.662,248.803 212.194,248.095 212.009 C 247.435 211.836,233.667 203.753,218.250 194.486 C 215.075 192.577,212.407 191.016,212.323 191.016 C 212.238 191.016,210.066 189.711,207.498 188.117 C 204.929 186.523,200.741 184.002,198.191 182.515 C 195.641 181.029,189.775 177.565,185.156 174.818 C 180.537 172.071,176.406 169.622,175.977 169.375 C 175.195 168.926,166.139 163.534,143.750 150.185 C 137.197 146.278,129.375 141.629,126.367 139.854 C 121.684 137.089,102.499 125.683,90.234 118.371 L 86.523 116.159 86.422 99.486 C 86.366 90.315,86.437 82.813,86.581 82.813 C 86.724 82.813,88.704 83.900,90.979 85.230 M72.622 121.824 C 75.883 123.863,98.370 137.613,115.625 148.119 C 124.971 153.809,134.990 159.927,137.891 161.714 C 140.791 163.501,147.119 167.365,151.953 170.302 C 156.787 173.239,162.412 176.666,164.453 177.918 C 166.494 179.170,170.625 181.678,173.633 183.492 C 176.641 185.305,180.156 187.441,181.445 188.239 C 182.734 189.036,187.437 191.936,191.895 194.685 C 200.238 199.827,201.050 200.596,199.501 201.881 C 197.962 203.158,175.483 215.631,174.960 215.497 C 174.616 215.410,165.563 210.099,154.843 203.695 C 144.123 197.292,126.826 186.959,116.406 180.734 C 105.986 174.509,96.951 169.059,96.328 168.623 L 95.194 167.831 95.449 204.131 C 95.590 224.095,95.818 254.976,95.957 272.754 L 96.210 305.078 83.066 305.078 L 69.922 305.078 69.922 212.891 C 69.922 143.104,70.032 120.703,70.376 120.703 C 70.626 120.703,71.636 121.207,72.622 121.824 M335.923 121.457 C 336.191 121.958,336.260 127.438,336.129 137.766 C 336.020 146.321,335.746 186.191,335.520 226.367 C 335.294 266.543,335.040 300.293,334.956 301.367 C 334.872 302.441,334.795 303.718,334.784 304.204 L 334.766 305.089 321.582 304.986 L 308.398 304.883 308.271 298.828 C 308.201 295.498,308.267 257.885,308.417 215.244 L 308.691 137.715 309.936 136.533 C 310.621 135.883,314.111 133.506,317.691 131.250 C 321.271 128.994,326.358 125.718,328.995 123.969 C 334.001 120.648,335.248 120.196,335.923 121.457 M118.060 212.012 C 120.123 213.462,124.507 216.568,127.801 218.914 C 131.094 221.260,134.517 223.693,135.408 224.321 C 137.629 225.889,137.500 223.282,137.500 266.455 L 137.500 305.078 125.195 305.078 L 112.891 305.078 112.891 257.487 C 112.891 231.312,113.008 209.779,113.151 209.635 C 113.689 209.097,114.405 209.444,118.060 212.012 "
          stroke="none" fill="#040404" fill-rule="evenodd"></path>
    <path id="path2"
          d="M298.992 90.625 C 298.992 94.814,299.049 96.528,299.119 94.434 C 299.190 92.339,299.190 88.911,299.119 86.816 C 299.049 84.722,298.992 86.436,298.992 90.625 M298.919 100.781 C 298.919 101.533,298.999 101.841,299.097 101.465 C 299.196 101.089,299.196 100.474,299.097 100.098 C 298.999 99.722,298.919 100.029,298.919 100.781 M298.574 115.234 C 298.574 117.061,298.641 117.808,298.724 116.895 C 298.806 115.981,298.806 114.487,298.724 113.574 C 298.641 112.661,298.574 113.408,298.574 115.234 M336.028 123.047 C 336.028 123.799,336.109 124.106,336.207 123.730 C 336.305 123.354,336.305 122.739,336.207 122.363 C 336.109 121.987,336.028 122.295,336.028 123.047 M336.088 129.297 C 336.088 131.982,336.150 133.081,336.227 131.738 C 336.303 130.396,336.303 128.198,336.227 126.855 C 336.150 125.513,336.088 126.611,336.088 129.297 M223.926 126.607 C 222.594 127.460,222.163 128.033,223.340 127.386 C 224.236 126.893,225.640 125.808,225.391 125.800 C 225.283 125.797,224.624 126.160,223.926 126.607 M308.762 146.875 C 308.762 151.924,308.817 153.989,308.885 151.465 C 308.953 148.940,308.953 144.810,308.885 142.285 C 308.817 139.761,308.762 141.826,308.762 146.875 M298.623 167.969 C 298.623 183.330,298.671 189.614,298.730 181.934 C 298.790 174.253,298.790 161.685,298.730 154.004 C 298.671 146.323,298.623 152.607,298.623 167.969 M335.726 179.297 C 335.726 188.857,335.777 192.769,335.839 187.988 C 335.902 183.208,335.902 175.386,335.839 170.605 C 335.777 165.825,335.726 169.736,335.726 179.297 M95.020 169.336 C 95.025 170.195,95.105 170.501,95.198 170.015 C 95.292 169.529,95.288 168.826,95.190 168.452 C 95.092 168.079,95.016 168.477,95.020 169.336 M95.470 214.844 C 95.470 218.174,95.530 219.536,95.603 217.871 C 95.676 216.206,95.676 213.481,95.603 211.816 C 95.530 210.151,95.470 211.514,95.470 214.844 M113.672 209.654 C 113.994 209.773,114.609 210.033,115.039 210.231 C 115.808 210.584,115.808 210.580,115.062 209.982 C 114.645 209.648,114.030 209.389,113.695 209.406 C 113.169 209.432,113.166 209.466,113.672 209.654 M119.922 213.423 C 119.922 213.531,120.449 213.994,121.094 214.453 C 121.738 214.912,122.266 215.200,122.266 215.092 C 122.266 214.985,121.738 214.521,121.094 214.063 C 120.449 213.604,119.922 213.316,119.922 213.423 M308.390 251.172 C 308.390 271.045,308.438 279.175,308.496 269.238 C 308.554 259.302,308.554 243.042,308.496 233.105 C 308.438 223.169,308.390 231.299,308.390 251.172 M124.219 216.548 C 124.219 216.656,124.746 217.119,125.391 217.578 C 126.035 218.037,126.563 218.325,126.563 218.217 C 126.563 218.110,126.035 217.646,125.391 217.188 C 124.746 216.729,124.219 216.441,124.219 216.548 M298.232 246.094 C 298.232 261.455,298.280 267.739,298.340 260.059 C 298.399 252.378,298.399 239.810,298.340 232.129 C 298.280 224.448,298.232 230.732,298.232 246.094 M95.485 232.422 C 95.485 238.545,95.539 241.050,95.605 237.988 C 95.671 234.927,95.671 229.917,95.605 226.855 C 95.539 223.794,95.485 226.299,95.485 232.422 M133.594 223.189 C 133.594 223.296,134.121 223.760,134.766 224.219 C 135.410 224.678,135.938 224.965,135.938 224.858 C 135.938 224.750,135.410 224.287,134.766 223.828 C 134.121 223.369,133.594 223.082,133.594 223.189 M335.336 241.602 C 335.336 251.055,335.387 254.866,335.449 250.071 C 335.511 245.276,335.511 237.542,335.449 232.884 C 335.386 228.225,335.336 232.148,335.336 241.602 M137.297 266.016 C 137.297 287.607,137.345 296.440,137.402 285.645 C 137.460 274.849,137.460 257.183,137.402 246.387 C 137.345 235.591,137.297 244.424,137.297 266.016 M95.878 280.859 C 95.878 287.842,95.931 290.698,95.995 287.207 C 96.060 283.716,96.060 278.003,95.995 274.512 C 95.931 271.021,95.878 273.877,95.878 280.859 M271.225 275.000 C 271.225 276.611,271.294 277.271,271.378 276.465 C 271.463 275.659,271.463 274.341,271.378 273.535 C 271.294 272.729,271.225 273.389,271.225 275.000 M334.928 294.141 C 334.928 298.115,334.986 299.741,335.057 297.754 C 335.128 295.767,335.128 292.515,335.057 290.527 C 334.986 288.540,334.928 290.166,334.928 294.141 "
          stroke="none" fill="#5b5858" fill-rule="evenodd"></path>
    <path id="path3"
          d="M298.544 110.547 C 298.544 111.514,298.620 111.909,298.713 111.426 C 298.806 110.942,298.806 110.151,298.713 109.668 C 298.620 109.185,298.544 109.580,298.544 110.547 M298.610 129.297 C 298.610 135.420,298.664 137.925,298.730 134.863 C 298.796 131.802,298.796 126.792,298.730 123.730 C 298.664 120.669,298.610 123.174,298.610 129.297 M308.700 157.422 C 308.700 158.389,308.776 158.784,308.869 158.301 C 308.963 157.817,308.963 157.026,308.869 156.543 C 308.776 156.060,308.700 156.455,308.700 157.422 M335.638 160.938 C 335.638 161.689,335.718 161.997,335.816 161.621 C 335.914 161.245,335.914 160.630,335.816 160.254 C 335.718 159.878,335.638 160.186,335.638 160.938 M95.096 183.984 C 95.096 190.967,95.149 193.823,95.214 190.332 C 95.279 186.841,95.279 181.128,95.214 177.637 C 95.149 174.146,95.096 177.002,95.096 183.984 M271.657 198.633 C 271.657 205.078,271.711 207.770,271.776 204.614 C 271.842 201.458,271.842 196.185,271.777 192.895 C 271.711 189.606,271.658 192.188,271.657 198.633 M298.175 215.820 C 298.177 217.324,298.247 217.892,298.332 217.081 C 298.417 216.271,298.415 215.040,298.329 214.347 C 298.243 213.653,298.173 214.316,298.175 215.820 M95.403 244.531 C 95.403 245.283,95.484 245.591,95.582 245.215 C 95.680 244.839,95.680 244.224,95.582 243.848 C 95.484 243.472,95.403 243.779,95.403 244.531 M297.812 284.570 C 297.813 287.793,297.874 289.059,297.947 287.384 C 298.020 285.710,298.020 283.073,297.946 281.525 C 297.872 279.977,297.812 281.348,297.812 284.570 M308.310 288.672 C 308.310 289.639,308.386 290.034,308.479 289.551 C 308.572 289.067,308.572 288.276,308.479 287.793 C 308.386 287.310,308.310 287.705,308.310 288.672 "
          stroke="none" fill="#767474" fill-rule="evenodd"></path>
    <path id="path4"
          d="M298.613 96.094 C 298.613 103.291,298.665 106.235,298.730 102.637 C 298.794 99.038,298.794 93.149,298.730 89.551 C 298.665 85.952,298.613 88.896,298.613 96.094 M227.051 125.045 C 225.719 125.898,225.288 126.470,226.465 125.824 C 227.361 125.331,228.765 124.245,228.516 124.238 C 228.408 124.235,227.749 124.598,227.051 125.045 M216.916 131.474 L 215.820 132.479 217.090 131.596 C 217.788 131.110,218.359 130.658,218.359 130.591 C 218.359 130.282,217.927 130.547,216.916 131.474 M271.670 159.375 C 271.670 174.736,271.718 181.021,271.777 173.340 C 271.836 165.659,271.836 153.091,271.777 145.410 C 271.718 137.729,271.670 144.014,271.670 159.375 M335.702 154.297 C 335.702 157.412,335.763 158.687,335.837 157.129 C 335.911 155.571,335.911 153.022,335.837 151.465 C 335.763 149.907,335.702 151.182,335.702 154.297 M298.233 183.008 C 298.233 199.766,298.281 206.564,298.340 198.116 C 298.399 189.667,298.398 175.956,298.340 167.647 C 298.281 159.338,298.233 166.250,298.233 183.008 M308.766 169.922 C 308.766 176.045,308.820 178.550,308.886 175.488 C 308.952 172.427,308.952 167.417,308.886 164.355 C 308.820 161.294,308.766 163.799,308.766 169.922 M95.068 200.586 C 95.069 202.949,95.133 203.866,95.211 202.622 C 95.289 201.379,95.288 199.446,95.209 198.326 C 95.131 197.205,95.067 198.223,95.068 200.586 M271.671 241.406 C 271.671 258.701,271.719 265.776,271.777 257.129 C 271.836 248.481,271.836 234.331,271.777 225.684 C 271.719 217.036,271.671 224.111,271.671 241.406 M117.188 211.861 C 117.188 211.968,117.715 212.432,118.359 212.891 C 119.004 213.350,119.531 213.637,119.531 213.530 C 119.531 213.422,119.004 212.959,118.359 212.500 C 117.715 212.041,117.188 211.753,117.188 211.861 M335.309 218.359 C 335.309 221.260,335.371 222.446,335.446 220.996 C 335.521 219.546,335.521 217.173,335.446 215.723 C 335.371 214.272,335.309 215.459,335.309 218.359 M136.719 265.547 L 136.914 305.273 137.014 265.842 C 137.068 244.154,136.980 226.277,136.818 226.115 C 136.656 225.953,136.611 243.697,136.719 265.547 M95.453 249.219 C 95.453 251.260,95.519 252.095,95.600 251.074 C 95.680 250.054,95.680 248.384,95.600 247.363 C 95.519 246.343,95.453 247.178,95.453 249.219 M297.832 265.430 C 297.832 272.949,297.885 275.970,297.949 272.143 C 298.013 268.315,298.013 262.163,297.948 258.471 C 297.884 254.779,297.832 257.910,297.832 265.430 M271.662 289.648 C 271.662 298.242,271.714 301.702,271.777 297.337 C 271.840 292.972,271.840 285.941,271.777 281.712 C 271.714 277.483,271.662 281.055,271.662 289.648 M334.916 280.469 C 334.916 283.154,334.979 284.253,335.055 282.910 C 335.131 281.567,335.131 279.370,335.055 278.027 C 334.979 276.685,334.916 277.783,334.916 280.469 M70.091 295.508 C 70.091 300.879,70.146 303.130,70.213 300.511 C 70.281 297.892,70.281 293.497,70.214 290.745 C 70.147 287.994,70.091 290.137,70.091 295.508 M297.820 297.656 C 297.820 301.846,297.877 303.560,297.947 301.465 C 298.018 299.370,298.018 295.942,297.947 293.848 C 297.877 291.753,297.820 293.467,297.820 297.656 M308.365 297.266 C 308.365 301.240,308.423 302.866,308.494 300.879 C 308.565 298.892,308.565 295.640,308.494 293.652 C 308.423 291.665,308.365 293.291,308.365 297.266 M95.849 299.414 C 95.850 301.777,95.914 302.694,95.992 301.451 C 96.070 300.207,96.069 298.274,95.991 297.154 C 95.912 296.034,95.848 297.051,95.849 299.414 "
          stroke="none" fill="#7c7c7c" fill-rule="evenodd"></path>
  </g>
</svg>
